#!OML:ASF G:\JayActor3\Patient Classification 1\Patient 1\Session 2\male.ASF
:FULLY-SPECIFIED
:DEGREES
4243
root -27.1483 15.0011 -6.06429 369.875 70.104 0.941284
lowerback 20.3154 -1.877 -3.00338
upperback 15.591 -1.66043 -3.2972
thorax 5.71949 -0.447184 -1.57173
lowerneck -4.68177 8.23443 5.61272
upperneck -13.2027 10.8381 -6.15742
head -2.79518 5.54715 -3.03603
rclavicle 3.4191e-014 -3.18055e-015
rhumerus -23.6529 4.43849 -79.5937
rradius 75.9167
rwrist 14.1585
rhand -44.6857 13.2028
rfingers 7.12502
rthumb -17.4812 -16.0312
lclavicle 3.4191e-014 -3.18055e-015
lhumerus 21.6606 5.06115 56.9359
lradius 75.3682
lwrist -0.326815
lhand -34.1908 20.4328
lfingers 7.12502
lthumb -7.36373 50.2847
rfemur -64.1853 -1.96256 25.5821
rtibia 64.2535
rfoot -19.4755 -8.58664
rtoes 3.97107
lfemur -42.3691 15.9221 -34.3087
ltibia 64.7219
lfoot -27.4966 7.65068
ltoes -6.26417
4244
root -27.099 14.9973 -6.06375 370.011 70.1096 1.2044
lowerback 20.2988 -1.90058 -3.04196
upperback 15.6202 -1.6894 -3.34175
thorax 5.76234 -0.460827 -1.5949
lowerneck -4.62958 8.30424 5.64926
upperneck -13.2336 10.9295 -6.21449
head -2.80425 5.59398 -3.06418
rclavicle -1.43125e-014 7.95139e-016
rhumerus -23.6881 4.39161 -79.635
rradius 75.8846
rwrist 14.1631
rhand -44.6798 13.205
rfingers 7.12502
rthumb -17.4756 -16.0295
lclavicle -1.43125e-014 7.95139e-016
lhumerus 21.6717 5.0533 56.9908
lradius 75.3555
lwrist -0.342355
lhand -34.1879 20.4552
lfingers 7.12502
lthumb -7.36093 50.3072
rfemur -64.3023 -2.18292 26.4086
rtibia 63.1294
rfoot -18.6388 -8.87224
rtoes 5.27774
lfemur -42.1017 16.0981 -34.4431
ltibia 64.8066
lfoot -27.5668 7.62109
ltoes -6.34336
4245
root -27.0502 14.9944 -6.06301 370.163 70.1262 1.47579
lowerback 20.2782 -1.92699 -3.07764
upperback 15.6476 -1.72159 -3.38622
thorax 5.80507 -0.475889 -1.61922
lowerneck -4.58779 8.37319 5.68343
upperneck -13.2537 11.02 -6.26393
head -2.80829 5.64008 -3.08825
rclavicle -1.98785e-014 2.8625e-014
rhumerus -23.7194 4.3452 -79.6777
rradius 75.8533
rwrist 14.1588
rhand -44.6727 13.2108
rfingers 7.12502
rthumb -17.4687 -16.0243
lclavicle -1.98785e-014 2.8625e-014
lhumerus 21.6841 5.04212 57.0463
lradius 75.3404
lwrist -0.352883
lhand -34.1825 20.4723
lfingers 7.12502
lthumb -7.35577 50.3244
rfemur -64.4036 -2.43635 27.257
rtibia 62.0108
rfoot -17.6723 -9.17333
rtoes 6.77417
lfemur -41.8455 16.2689 -34.5748
ltibia 64.8928
lfoot -27.6291 7.56615
ltoes -6.40895
4246
root -27.0014 14.992 -6.06204 370.329 70.1457 1.75834
lowerback 20.2549 -1.95282 -3.11263
upperback 15.6738 -1.75291 -3.43104
thorax 5.84771 -0.490464 -1.64451
lowerneck -4.55335 8.44079 5.71491
upperneck -13.264 11.1088 -6.30794
head -2.80812 5.68516 -3.10914
rclavicle 3.97569e-015 -7.95139e-016
rhumerus -23.7507 4.29836 -79.7197
rradius 75.8254
rwrist 14.1445
rhand -44.6608 13.2283
rfingers 7.12502
rthumb -17.4573 -16.0078
lclavicle 3.97569e-015 -7.95139e-016
lhumerus 21.7004 5.02527 57.1027
lradius 75.3183
lwrist -0.355139
lhand -34.1799 20.4768
lfingers 7.12502
lthumb -7.35321 50.329
rfemur -64.4848 -2.71801 28.1237
rtibia 60.9006
rfoot -16.5955 -9.47956
rtoes 8.34052
lfemur -41.5944 16.4387 -34.7033
ltibia 64.9813
lfoot -27.6821 7.48636
ltoes -6.45887
4247
root -26.9524 14.9899 -6.06078 370.508 70.1656 2.05347
lowerback 20.2295 -1.97693 -3.14843
upperback 15.6995 -1.78203 -3.47644
thorax 5.89076 -0.503968 -1.67038
lowerneck -4.5215 8.50518 5.74208
upperneck -13.2692 11.1937 -6.34635
head -2.80647 5.7282 -3.12708
rclavicle 3.18055e-015 -1.59028e-014
rhumerus -23.7841 4.25203 -79.7609
rradius 75.8034
rwrist 14.125
rhand -44.6505 13.2385
rfingers 7.12502
rthumb -17.4473 -15.9985
lclavicle 3.18055e-015 -1.59028e-014
lhumerus 21.7184 5.00138 57.1609
lradius 75.293
lwrist -0.348657
lhand -34.1799 20.4796
lfingers 7.12502
lthumb -7.35324 50.3319
rfemur -64.5446 -3.02947 29.0123
rtibia 59.7974
rfoot -15.4301 -9.80062
rtoes 9.79178
lfemur -41.3418 16.6078 -34.8282
ltibia 65.0703
lfoot -27.7139 7.39803
ltoes -6.60298
4248
root -26.9036 14.9879 -6.05926 370.707 70.1906 2.36507
lowerback 20.2055 -2.00001 -3.18686
upperback 15.723 -1.81036 -3.52084
thorax 5.93096 -0.51736 -1.69377
lowerneck -4.49783 8.56603 5.76613
upperneck -13.2672 11.2737 -6.38131
head -2.80153 5.76874 -3.14254
rclavicle 1.11319e-014 2.38542e-014
rhumerus -23.8195 4.2054 -79.7987
rradius 75.7879
rwrist 14.1019
rhand -44.6388 13.243
rfingers 7.12502
rthumb -17.4361 -15.995
lclavicle 1.11319e-014 2.38542e-014
lhumerus 21.736 4.9688 57.222
lradius 75.2667
lwrist -0.333339
lhand -34.1826 20.4725
lfingers 7.12502
lthumb -7.35582 50.3246
rfemur -64.5893 -3.37377 29.9233
rtibia 58.7036
rfoot -14.17 -10.1431
rtoes 10.873
lfemur -41.0947 16.769 -34.9502
ltibia 65.1627
lfoot -27.7194 7.30534
ltoes -6.80615
4249
root -26.8545 14.9855 -6.05733 370.923 70.2183 2.69378
lowerback 20.1833 -2.02125 -3.2294
upperback 15.7457 -1.83689 -3.56464
thorax 5.96945 -0.530189 -1.71448
lowerneck -4.47638 8.62285 5.79039
upperneck -13.265 11.3482 -6.41604
head -2.79643 5.80648 -3.1579
rclavicle 1.03368e-014 -1.98785e-014
rhumerus -23.8569 4.15862 -79.8325
rradius 75.777
rwrist 14.0811
rhand -44.6289 13.2348
rfingers 7.12502
rthumb -17.4266 -16.004
lclavicle 1.03368e-014 -1.98785e-014
lhumerus 21.7524 4.92767 57.2865
lradius 75.2408
lwrist -0.315812
lhand -34.1867 20.4533
lfingers 7.12502
lthumb -7.35976 50.3053
rfemur -64.6165 -3.75155 30.8584
rtibia 57.6187
rfoot -12.8725 -10.4716
rtoes 11.7284
lfemur -40.845 16.9265 -35.0708
ltibia 65.2587
lfoot -27.7018 7.20844
ltoes -7.03499
4250
root -26.8053 14.9827 -6.05511 371.146 70.2443 3.03016
lowerback 20.1651 -2.03993 -3.27351
upperback 15.7687 -1.86025 -3.60911
thorax 6.00644 -0.541425 -1.73546
lowerneck -4.45944 8.6749 5.81484
upperneck -13.2651 11.4162 -6.44921
head -2.79174 5.84096 -3.1727
rclavicle 8.74653e-015 8.74653e-015
rhumerus -23.8945 4.11134 -79.8638
rradius 75.7715
rwrist 14.0662
rhand -44.6204 13.221
rfingers 7.12502
rthumb -17.4184 -16.0185
lclavicle 8.74653e-015 8.74653e-015
lhumerus 21.7699 4.87957 57.3514
lradius 75.2174
lwrist -0.300785
lhand -34.192 20.4169
lfingers 7.12502
lthumb -7.36494 50.2687
rfemur -64.6241 -4.15458 31.8163
rtibia 56.5423
rfoot -11.5627 -10.7664
rtoes 12.3624
lfemur -40.5986 17.0826 -35.1888
ltibia 65.3612
lfoot -27.6568 7.11955
ltoes -7.31229
4251
root -26.7558 14.9795 -6.05258 371.382 70.2702 3.37754
lowerback 20.1498 -2.0569 -3.32081
upperback 15.7895 -1.88216 -3.6534
thorax 6.03963 -0.552228 -1.7546
lowerneck -4.43686 8.72122 5.83439
upperneck -13.2719 11.4773 -6.47803
head -2.79136 5.87209 -3.18611
rclavicle -4.92986e-014 -2.62396e-014
rhumerus -23.9336 4.06508 -79.8918
rradius 75.7658
rwrist 14.0619
rhand -44.6122 13.2096
rfingers 7.12502
rthumb -17.4105 -16.0307
lclavicle -4.92986e-014 -2.62396e-014
lhumerus 21.7811 4.82614 57.418
lradius 75.2009
lwrist -0.290099
lhand -34.2042 20.3763
lfingers 7.12502
lthumb -7.37667 50.2277
rfemur -64.6138 -4.58406 32.7977
rtibia 55.4701
rfoot -10.2491 -11.0233
rtoes 12.6869
lfemur -40.3581 17.2477 -35.3082
ltibia 65.4708
lfoot -27.5967 7.02174
ltoes -7.56782
4252
root -26.706 14.9755 -6.04971 371.623 70.2915 3.72939
lowerback 20.1364 -2.07244 -3.37183
upperback 15.8088 -1.90294 -3.69832
thorax 6.07035 -0.562782 -1.77246
lowerneck -4.41039 8.76478 5.84998
upperneck -13.2843 11.5353 -6.50402
head -2.79413 5.90175 -3.19854
rclavicle 4.69132e-014 1.59028e-014
rhumerus -23.9705 4.02635 -79.9185
rradius 75.757
rwrist 14.0671
rhand -44.6061 13.2014
rfingers 7.12502
rthumb -17.4046 -16.0394
lclavicle 4.69132e-014 1.59028e-014
lhumerus 21.7827 4.77297 57.4831
lradius 75.1931
lwrist -0.283723
lhand -34.2077 20.3424
lfingers 7.12502
lthumb -7.38005 50.1936
rfemur -64.5818 -5.03036 33.7939
rtibia 54.4039
rfoot -8.97697 -11.2089
rtoes 12.8597
lfemur -40.1201 17.4252 -35.4271
ltibia 65.5883
lfoot -27.5369 6.92673
ltoes -7.83102
4253
root -26.656 14.9711 -6.04645 371.868 70.3118 4.08113
lowerback 20.1259 -2.08736 -3.42621
upperback 15.8255 -1.92387 -3.74226
thorax 6.0968 -0.57383 -1.78727
lowerneck -4.38011 8.80513 5.85818
upperneck -13.303 11.5898 -6.52418
head -2.80072 5.92988 -3.20847
rclavicle 8.98507e-014 2.38542e-015
rhumerus -24.0015 3.99398 -79.9447
rradius 75.7412
rwrist 14.0826
rhand -44.6013 13.2017
rfingers 7.12502
rthumb -17.3999 -16.0395
lclavicle 8.98507e-014 2.38542e-015
lhumerus 21.7753 4.72169 57.5479
lradius 75.1933
lwrist -0.285368
lhand -34.2 20.2976
lfingers 7.12502
lthumb -7.3726 50.1491
rfemur -64.5298 -5.48669 34.7962
rtibia 53.3449
rfoot -7.77142 -11.3198
rtoes 12.9162
lfemur -39.8909 17.6093 -35.5429
ltibia 65.7144
lfoot -27.4787 6.82846
ltoes -8.11684
4254
root -26.6059 14.9663 -6.04275 372.119 70.3282 4.4377
lowerback 20.1174 -2.10105 -3.48738
upperback 15.8418 -1.94422 -3.78612
thorax 6.12217 -0.585182 -1.79826
lowerneck -4.35478 8.844 5.86045
upperneck -13.3219 11.6426 -6.53941
head -2.80724 5.95727 -3.21551
rclavicle 1.27222e-014 -3.97569e-014
rhumerus -24.0227 3.97095 -79.9701
rradius 75.7204
rwrist 14.1004
rhand -44.5927 13.2067
rfingers 7.12502
rthumb -17.3917 -16.0352
lclavicle 1.27222e-014 -3.97569e-014
lhumerus 21.7623 4.67509 57.6098
lradius 75.1987
lwrist -0.292486
lhand -34.186 20.2352
lfingers 7.12502
lthumb -7.35911 50.0872
rfemur -64.4566 -5.94458 35.7897
rtibia 52.3
rfoot -6.64994 -11.3585
rtoes 12.9443
lfemur -39.6682 17.8023 -35.6569
ltibia 65.8494
lfoot -27.4352 6.72732
ltoes -8.41908
4255
root -26.5555 14.9612 -6.03856 372.355 70.3408 4.77842
lowerback 20.1132 -2.11318 -3.54927
upperback 15.8566 -1.96312 -3.82801
thorax 6.14376 -0.596044 -1.80681
lowerneck -4.32558 8.88021 5.86063
upperneck -13.342 11.6921 -6.55332
head -2.81528 5.98301 -3.22217
rclavicle -3.97569e-014 4.77083e-014
rhumerus -24.0368 3.95669 -79.995
rradius 75.6969
rwrist 14.1156
rhand -44.5797 13.2094
rfingers 7.12502
rthumb -17.3792 -16.0337
lclavicle -3.97569e-014 4.77083e-014
lhumerus 21.7418 4.6311 57.6697
lradius 75.208
lwrist -0.304427
lhand -34.1866 20.2042
lfingers 7.12502
lthumb -7.3597 50.0562
rfemur -64.3588 -6.3927 36.7654
rtibia 51.2776
rfoot -5.62646 -11.3338
rtoes 13.0551
lfemur -39.4471 18.0046 -35.7601
ltibia 65.9936
lfoot -27.404 6.62315
ltoes -8.78815
4256
root -26.5052 14.9562 -6.03401 372.58 70.3502 5.10149
lowerback 20.1071 -2.12353 -3.60862
upperback 15.8692 -1.97976 -3.86799
thorax 6.16375 -0.605826 -1.81506
lowerneck -4.29887 8.91463 5.86076
upperneck -13.3604 11.739 -6.56778
head -2.82241 6.00741 -3.22881
rclavicle 5.48646e-014 3.18055e-015
rhumerus -24.0418 3.94427 -80.0194
rradius 75.6726
rwrist 14.1266
rhand -44.5614 13.2117
rfingers 7.12502
rthumb -17.3615 -16.0329
lclavicle 5.48646e-014 3.18055e-015
lhumerus 21.7177 4.5869 57.7276
lradius 75.2204
lwrist -0.317713
lhand -34.1858 20.194
lfingers 7.12502
lthumb -7.35891 50.0461
rfemur -64.2453 -6.82108 37.7129
rtibia 50.2844
rfoot -4.66985 -11.2834
rtoes 13.1889
lfemur -39.238 18.2072 -35.8537
ltibia 66.1459
lfoot -27.3796 6.51479
ltoes -9.18691
